<mxfile host="Electron" modified="2023-05-20T16:59:28.424Z" agent="Mozilla/5.0 (Windows NT 10.0; Win64; x64) AppleWebKit/537.36 (KHTML, like Gecko) draw.io/21.2.1 Chrome/112.0.5615.87 Electron/24.1.2 Safari/537.36" etag="9016JZNh4fIUl4lHCUtB" version="21.2.1" type="device">
  <diagram name="第 1 页" id="uwKSu-H3l_kru5IloZrT">
    <mxGraphModel dx="1044" dy="359" grid="0" gridSize="10" guides="1" tooltips="1" connect="1" arrows="1" fold="1" page="0" pageScale="1" pageWidth="827" pageHeight="1169" math="0" shadow="0">
      <root>
        <mxCell id="0" />
        <mxCell id="1" parent="0" />
        <mxCell id="CCTWVmGjXVh84asYvsrQ-1" value="菜单" style="rounded=0;whiteSpace=wrap;html=1;strokeColor=#0F8B8D;fontSize=16;fontColor=#143642;fillColor=#FAE5C7;labelBackgroundColor=none;" parent="1" vertex="1">
          <mxGeometry x="211" y="219" width="120" height="60" as="geometry" />
        </mxCell>
        <mxCell id="CCTWVmGjXVh84asYvsrQ-2" value="标志" style="ellipse;whiteSpace=wrap;html=1;strokeColor=#0F8B8D;fontSize=16;fontColor=#143642;fillColor=#FAE5C7;labelBackgroundColor=none;" parent="1" vertex="1">
          <mxGeometry x="441" y="219" width="80" height="60" as="geometry" />
        </mxCell>
        <mxCell id="CCTWVmGjXVh84asYvsrQ-3" value="创建时间" style="ellipse;whiteSpace=wrap;html=1;strokeColor=#0F8B8D;fontSize=16;fontColor=#143642;fillColor=#FAE5C7;labelBackgroundColor=none;" parent="1" vertex="1">
          <mxGeometry x="231" y="349" width="80" height="60" as="geometry" />
        </mxCell>
        <mxCell id="CCTWVmGjXVh84asYvsrQ-4" value="名称" style="ellipse;whiteSpace=wrap;html=1;strokeColor=#0F8B8D;fontSize=16;fontColor=#143642;fillColor=#FAE5C7;labelBackgroundColor=none;" parent="1" vertex="1">
          <mxGeometry x="31" y="219" width="80" height="60" as="geometry" />
        </mxCell>
        <mxCell id="CCTWVmGjXVh84asYvsrQ-5" value="图标" style="ellipse;whiteSpace=wrap;html=1;strokeColor=#0F8B8D;fontSize=16;fontColor=#143642;fillColor=#FAE5C7;labelBackgroundColor=none;" parent="1" vertex="1">
          <mxGeometry x="86" y="311" width="80" height="60" as="geometry" />
        </mxCell>
        <mxCell id="CCTWVmGjXVh84asYvsrQ-6" value="ID" style="ellipse;whiteSpace=wrap;html=1;strokeColor=#0F8B8D;fontSize=16;fontColor=#143642;fillColor=#FAE5C7;labelBackgroundColor=none;" parent="1" vertex="1">
          <mxGeometry x="231" y="89" width="80" height="60" as="geometry" />
        </mxCell>
        <mxCell id="CCTWVmGjXVh84asYvsrQ-7" value="状态" style="ellipse;whiteSpace=wrap;html=1;strokeColor=#0F8B8D;fontSize=16;fontColor=#143642;fillColor=#FAE5C7;labelBackgroundColor=none;" parent="1" vertex="1">
          <mxGeometry x="382" y="304" width="80" height="60" as="geometry" />
        </mxCell>
        <mxCell id="CCTWVmGjXVh84asYvsrQ-8" value="" style="endArrow=none;html=1;rounded=0;strokeColor=#A8201A;fontSize=12;fontColor=default;startSize=8;endSize=8;fillColor=#FAE5C7;curved=1;entryX=0.5;entryY=1;entryDx=0;entryDy=0;exitX=0.5;exitY=0;exitDx=0;exitDy=0;labelBackgroundColor=none;" parent="1" source="CCTWVmGjXVh84asYvsrQ-1" target="CCTWVmGjXVh84asYvsrQ-6" edge="1">
          <mxGeometry width="50" height="50" relative="1" as="geometry">
            <mxPoint x="141" y="299" as="sourcePoint" />
            <mxPoint x="191" y="249" as="targetPoint" />
          </mxGeometry>
        </mxCell>
        <mxCell id="CCTWVmGjXVh84asYvsrQ-9" value="" style="endArrow=none;html=1;rounded=0;strokeColor=#A8201A;fontSize=12;fontColor=default;startSize=8;endSize=8;fillColor=#FAE5C7;curved=1;exitX=1;exitY=1;exitDx=0;exitDy=0;labelBackgroundColor=none;" parent="1" source="CCTWVmGjXVh84asYvsrQ-1" edge="1">
          <mxGeometry width="50" height="50" relative="1" as="geometry">
            <mxPoint x="141" y="299" as="sourcePoint" />
            <mxPoint x="396" y="311" as="targetPoint" />
          </mxGeometry>
        </mxCell>
        <mxCell id="CCTWVmGjXVh84asYvsrQ-10" value="" style="endArrow=none;html=1;rounded=0;strokeColor=#A8201A;fontSize=12;fontColor=default;startSize=8;endSize=8;fillColor=#FAE5C7;curved=1;entryX=1;entryY=0;entryDx=0;entryDy=0;exitX=0;exitY=1;exitDx=0;exitDy=0;labelBackgroundColor=none;" parent="1" source="CCTWVmGjXVh84asYvsrQ-1" target="CCTWVmGjXVh84asYvsrQ-5" edge="1">
          <mxGeometry width="50" height="50" relative="1" as="geometry">
            <mxPoint x="141" y="299" as="sourcePoint" />
            <mxPoint x="191" y="249" as="targetPoint" />
          </mxGeometry>
        </mxCell>
        <mxCell id="CCTWVmGjXVh84asYvsrQ-11" value="" style="endArrow=none;html=1;rounded=0;strokeColor=#A8201A;fontSize=12;fontColor=default;startSize=8;endSize=8;fillColor=#FAE5C7;curved=1;entryX=0;entryY=0.5;entryDx=0;entryDy=0;exitX=1;exitY=0.5;exitDx=0;exitDy=0;labelBackgroundColor=none;" parent="1" source="CCTWVmGjXVh84asYvsrQ-4" target="CCTWVmGjXVh84asYvsrQ-1" edge="1">
          <mxGeometry width="50" height="50" relative="1" as="geometry">
            <mxPoint x="141" y="299" as="sourcePoint" />
            <mxPoint x="191" y="249" as="targetPoint" />
          </mxGeometry>
        </mxCell>
        <mxCell id="CCTWVmGjXVh84asYvsrQ-12" value="" style="endArrow=none;html=1;rounded=0;strokeColor=#A8201A;fontSize=12;fontColor=default;startSize=8;endSize=8;fillColor=#FAE5C7;curved=1;entryX=0;entryY=0.5;entryDx=0;entryDy=0;exitX=1;exitY=0.5;exitDx=0;exitDy=0;labelBackgroundColor=none;" parent="1" source="CCTWVmGjXVh84asYvsrQ-1" target="CCTWVmGjXVh84asYvsrQ-2" edge="1">
          <mxGeometry width="50" height="50" relative="1" as="geometry">
            <mxPoint x="141" y="299" as="sourcePoint" />
            <mxPoint x="191" y="249" as="targetPoint" />
          </mxGeometry>
        </mxCell>
        <mxCell id="CCTWVmGjXVh84asYvsrQ-13" value="" style="endArrow=none;html=1;rounded=0;strokeColor=#A8201A;fontSize=12;fontColor=default;startSize=8;endSize=8;fillColor=#FAE5C7;curved=1;entryX=0.5;entryY=1;entryDx=0;entryDy=0;exitX=0.5;exitY=0;exitDx=0;exitDy=0;labelBackgroundColor=none;" parent="1" source="CCTWVmGjXVh84asYvsrQ-3" target="CCTWVmGjXVh84asYvsrQ-1" edge="1">
          <mxGeometry width="50" height="50" relative="1" as="geometry">
            <mxPoint x="141" y="299" as="sourcePoint" />
            <mxPoint x="191" y="249" as="targetPoint" />
          </mxGeometry>
        </mxCell>
        <mxCell id="CCTWVmGjXVh84asYvsrQ-14" value="类型" style="ellipse;whiteSpace=wrap;html=1;strokeColor=#0F8B8D;fontSize=16;fontColor=#143642;fillColor=#FAE5C7;labelBackgroundColor=none;" parent="1" vertex="1">
          <mxGeometry x="382" y="127" width="80" height="60" as="geometry" />
        </mxCell>
        <mxCell id="CCTWVmGjXVh84asYvsrQ-15" value="组件" style="ellipse;whiteSpace=wrap;html=1;strokeColor=#0F8B8D;fontSize=16;fontColor=#143642;fillColor=#FAE5C7;labelBackgroundColor=none;" parent="1" vertex="1">
          <mxGeometry x="86" y="127" width="80" height="60" as="geometry" />
        </mxCell>
        <mxCell id="CCTWVmGjXVh84asYvsrQ-17" value="" style="endArrow=none;html=1;rounded=0;strokeColor=#A8201A;fontSize=12;fontColor=default;startSize=8;endSize=8;fillColor=#FAE5C7;curved=1;entryX=0;entryY=1;entryDx=0;entryDy=0;exitX=1;exitY=0;exitDx=0;exitDy=0;labelBackgroundColor=none;" parent="1" source="CCTWVmGjXVh84asYvsrQ-1" target="CCTWVmGjXVh84asYvsrQ-14" edge="1">
          <mxGeometry width="50" height="50" relative="1" as="geometry">
            <mxPoint x="348" y="198" as="sourcePoint" />
            <mxPoint x="458" y="198" as="targetPoint" />
          </mxGeometry>
        </mxCell>
        <mxCell id="CCTWVmGjXVh84asYvsrQ-18" value="" style="endArrow=none;html=1;rounded=0;strokeColor=#A8201A;fontSize=12;fontColor=default;startSize=8;endSize=8;fillColor=#FAE5C7;curved=1;entryX=0;entryY=0;entryDx=0;entryDy=0;exitX=1;exitY=1;exitDx=0;exitDy=0;labelBackgroundColor=none;" parent="1" source="CCTWVmGjXVh84asYvsrQ-15" target="CCTWVmGjXVh84asYvsrQ-1" edge="1">
          <mxGeometry width="50" height="50" relative="1" as="geometry">
            <mxPoint x="177" y="187" as="sourcePoint" />
            <mxPoint x="287" y="187" as="targetPoint" />
          </mxGeometry>
        </mxCell>
      </root>
    </mxGraphModel>
  </diagram>
</mxfile>
